<svg version="1.1" id="Layer_1" xmlns="http://www.w3.org/2000/svg" xmlns:xlink="http://www.w3.org/1999/xlink" x="0px" y="0px"
	 width="100%" viewBox="0 0 162 244" enable-background="new 0 0 162 244" xml:space="preserve">
<path fill="#FAFAFA" opacity="1.000000" stroke="none" 
	d="
M1.000000,81.000000 
	C1.000000,54.409798 1.000000,27.819597 1.000000,1.000000 
	C25.020407,1.000000 49.041546,1.000000 73.489532,1.376453 
	C67.968094,3.781402 62.033627,5.851717 56.066490,7.823154 
	C52.318188,9.061527 51.435890,11.770567 51.959534,15.289670 
	C52.928959,21.804646 55.358135,27.102018 62.636490,28.649761 
	C65.931824,29.350517 67.812675,31.416065 67.777130,35.006451 
	C67.680473,44.771774 62.628086,52.138096 56.005466,60.243896 
	C55.308922,56.197266 54.824177,53.381077 54.522701,51.629639 
	C50.643982,50.901829 47.328564,50.279720 44.013142,49.657608 
	C43.965576,49.196743 43.918007,48.735874 43.870441,48.275005 
	C51.467564,48.025398 50.013466,40.666935 53.896545,37.095585 
	C50.996407,37.095585 48.633587,36.725826 46.440571,37.178566 
	C42.760437,37.938316 39.095295,38.795555 38.564724,43.822701 
	C37.829597,50.788055 37.519379,51.097103 45.129147,53.190105 
	C49.278061,54.331226 51.163597,56.761066 53.199482,60.237930 
	C57.293949,67.230423 62.167103,73.767830 66.737602,80.480309 
	C68.718903,83.390160 71.418373,83.864326 74.640549,82.849945 
	C85.748642,79.352966 93.414238,72.305687 96.698433,61.025604 
	C99.703964,50.702614 96.351936,38.751137 89.441658,33.924225 
	C82.282623,40.648556 78.398705,40.772285 72.388306,34.399170 
	C71.364914,33.314018 70.685539,31.859886 69.557037,30.927418 
	C66.987862,28.804527 64.431625,26.529411 61.510414,25.005854 
	C58.302811,23.332928 57.861320,23.272219 57.838917,19.112673 
	C63.245739,19.867592 68.160980,21.172428 71.500664,26.118340 
	C73.155220,28.568655 75.422211,30.643141 77.590660,32.699379 
	C80.434319,35.395885 83.378883,35.061634 84.489876,31.315224 
	C85.786171,26.943933 86.687805,22.273989 86.672974,17.737183 
	C86.649513,10.558824 84.380775,4.169335 77.000000,1.000000 
	C105.626938,1.000000 134.253876,1.000000 163.000000,1.000000 
	C163.000000,77.354187 163.000000,153.708435 162.665970,230.346298 
	C160.828583,229.931747 159.387787,228.871826 157.810852,228.599075 
	C151.544876,227.515411 149.347778,223.020615 152.754227,217.927643 
	C153.864029,216.268372 155.023392,214.624329 155.947708,212.861938 
	C160.576126,204.037079 159.065201,198.287567 151.206345,192.091354 
	C147.856262,189.450012 145.276047,185.849625 142.027527,183.055267 
	C140.187897,181.472855 137.743622,179.735687 135.501083,179.634628 
	C127.696144,179.282883 119.860527,179.639969 112.036324,179.682693 
	C87.059555,179.819107 62.081833,179.866119 37.107231,180.172272 
	C34.750328,180.201187 32.029285,181.318222 30.145458,182.787018 
	C26.121748,185.924255 22.748718,189.897476 18.717888,193.023788 
	C13.614242,196.982208 11.560996,201.228043 13.560674,207.296707 
	C14.736349,210.864655 16.549103,214.331360 18.643654,217.463531 
	C22.192167,222.769943 21.615408,226.865921 15.442554,227.705292 
	C9.067121,228.572205 9.441358,232.013031 9.953946,236.151749 
	C10.288983,238.856888 11.282650,241.480453 11.978573,244.355576 
	C11.975842,244.570602 12.000000,245.000000 12.000000,245.000000 
	C8.342575,245.000000 4.685150,245.000000 1.000000,245.000000 
	C1.000000,190.979111 1.000000,136.958206 1.303916,82.609665 
	C3.447110,84.426338 5.044858,86.855843 7.173395,88.658646 
	C12.427663,93.108849 15.021697,101.604630 24.275745,100.194382 
	C24.752636,100.121704 25.333927,100.928902 25.906187,101.257523 
	C32.687050,105.151489 37.575851,103.583145 42.200645,97.402206 
	C45.617554,92.835579 50.069313,89.012283 54.259953,85.070358 
	C56.008656,83.425446 58.275932,82.331841 60.051258,81.157059 
	C56.214733,75.356735 51.706722,70.354225 49.357529,64.487297 
	C46.935410,58.438236 42.043213,57.307217 37.261467,55.323498 
	C36.529018,55.019642 35.121880,55.180389 34.602772,55.700806 
	C28.292683,62.026768 22.090565,68.460426 15.611435,74.959297 
	C15.366305,75.296059 15.370138,75.539642 15.373972,75.783218 
	C15.743808,75.707687 16.113644,75.632156 16.807772,75.400497 
	C17.409121,75.802025 18.027391,76.762421 17.913645,76.858788 
	C14.519171,79.734634 10.784410,81.581985 5.871965,80.186111 
	C12.182541,73.192436 18.770914,66.669586 25.556437,60.358715 
	C30.025160,56.202583 32.965782,51.177521 33.537357,45.250671 
	C34.500046,35.268135 39.451939,27.473408 45.644791,20.099762 
	C46.535919,19.038729 46.440277,17.148951 46.801292,15.642696 
	C45.891525,15.058894 44.981758,14.475092 44.071991,13.891291 
	C42.423561,16.162708 40.915966,18.554136 39.101200,20.683815 
	C32.783195,28.098177 30.499355,37.089214 29.086035,46.354687 
	C28.291954,51.560532 25.905006,55.600933 22.216881,59.251591 
	C15.020081,66.375275 8.058804,73.736900 1.000000,81.000000 
M85.780853,154.809311 
	C85.625259,154.673157 85.469666,154.537018 85.685791,153.827911 
	C90.063026,148.201324 93.936317,142.073471 98.926598,137.056686 
	C108.176414,127.757721 118.728989,119.702522 127.557449,110.048775 
	C140.779236,95.591019 145.728683,78.281097 141.162201,58.805920 
	C140.613159,56.464382 139.517563,54.251007 138.675293,51.978230 
	C137.728897,52.812897 137.576004,53.312290 137.635315,53.785072 
	C140.251160,74.641655 133.421143,92.526344 118.352753,106.400360 
	C107.931862,115.995239 95.678848,123.652344 83.977180,131.790985 
	C69.270737,142.019501 56.326473,153.611023 49.833588,170.963638 
	C49.441639,172.011139 47.836056,172.604523 45.961445,174.053757 
	C45.961445,171.670639 45.925030,170.699982 45.972561,169.733429 
	C46.013134,168.908417 46.088211,168.075455 46.253712,167.267670 
	C49.176315,153.002731 56.481804,141.174194 67.852509,132.419983 
	C77.834930,124.734581 88.816650,118.356941 99.254234,111.250740 
	C116.001167,99.848961 129.205200,85.776649 131.731430,64.600105 
	C133.235321,51.993443 131.372543,39.587238 120.159477,31.969992 
	C113.217979,27.254496 104.493492,25.116070 96.475967,22.066381 
	C94.524368,21.324036 92.205009,21.548517 89.118019,21.232586 
	C90.366684,23.230566 90.863434,24.254814 91.564293,25.112202 
	C101.059135,36.727493 103.712303,50.097385 101.151825,64.535629 
	C98.188866,81.243416 85.929337,90.558571 69.167099,88.888771 
	C61.356178,88.110672 56.327507,92.432602 50.797832,96.605087 
	C54.867020,98.239403 58.647930,99.130089 61.702854,101.129837 
	C66.463058,104.245857 66.027802,108.759056 61.198219,111.521179 
	C60.187138,112.099434 59.117657,112.576485 58.112915,113.164780 
	C35.097515,126.640709 26.299002,151.055450 32.615181,176.430298 
	C67.785645,176.430298 103.042763,176.430298 138.170837,176.430298 
	C154.393768,132.279572 159.053314,87.676109 148.627533,76.025887 
	C148.427017,76.501823 148.134094,76.901474 148.099258,77.322479 
	C146.640030,94.947586 138.508774,109.317696 125.740326,120.982368 
	C112.875725,132.734894 99.424416,143.845200 85.780853,154.809311 
z"/>
<path fill="#030303" opacity="1.000000" stroke="none" 
	d="
M11.981301,244.140549 
	C11.282650,241.480453 10.288983,238.856888 9.953946,236.151749 
	C9.441358,232.013031 9.067121,228.572205 15.442554,227.705292 
	C21.615408,226.865921 22.192167,222.769943 18.643654,217.463531 
	C16.549103,214.331360 14.736349,210.864655 13.560674,207.296707 
	C11.560996,201.228043 13.614242,196.982208 18.717888,193.023788 
	C22.748718,189.897476 26.121748,185.924255 30.145458,182.787018 
	C32.029285,181.318222 34.750328,180.201187 37.107231,180.172272 
	C62.081833,179.866119 87.059555,179.819107 112.036324,179.682693 
	C119.860527,179.639969 127.696144,179.282883 135.501083,179.634628 
	C137.743622,179.735687 140.187897,181.472855 142.027527,183.055267 
	C145.276047,185.849625 147.856262,189.450012 151.206345,192.091354 
	C159.065201,198.287567 160.576126,204.037079 155.947708,212.861938 
	C155.023392,214.624329 153.864029,216.268372 152.754227,217.927643 
	C149.347778,223.020615 151.544876,227.515411 157.810852,228.599075 
	C159.387787,228.871826 160.828583,229.931747 162.665970,230.814957 
	C163.000000,234.361282 163.000000,237.722580 162.626404,241.670776 
	C160.639511,242.818771 159.045578,243.788620 157.409363,243.866196 
	C151.947433,244.125137 146.470383,244.064468 140.537201,244.041962 
	C117.809662,243.938644 95.543983,243.881714 73.278427,243.911713 
	C52.845985,243.939255 32.413670,244.060562 11.981301,244.140549 
M123.045433,193.114380 
	C123.712570,192.968430 124.379707,192.822495 125.046844,192.676544 
	C120.016624,190.067047 114.966003,188.025452 109.725349,187.219498 
	C88.384430,183.937515 66.879456,183.219223 45.294815,182.886536 
	C36.266941,182.747406 32.914387,188.395737 28.158890,193.110046 
	C59.666790,193.110046 90.901253,193.110046 123.045433,193.114380 
M35.531273,228.596710 
	C72.643501,228.596710 109.755730,228.596710 146.867950,228.596710 
	C146.958389,227.907562 147.048843,227.218399 147.139282,226.529251 
	C143.224976,225.711258 139.314468,224.204926 135.395752,224.183167 
	C101.265442,223.993683 67.133240,223.996323 33.002975,224.188004 
	C29.779413,224.206100 26.565311,225.908524 23.346817,226.828964 
	C23.479683,227.418243 23.612549,228.007538 23.745417,228.596817 
	C27.346756,228.596817 30.948095,228.596817 35.531273,228.596710 
z"/>
<path fill="#070707" opacity="1.000000" stroke="none" 
	d="
M76.625000,1.000000 
	C84.380775,4.169335 86.649513,10.558824 86.672974,17.737183 
	C86.687805,22.273989 85.786171,26.943933 84.489876,31.315224 
	C83.378883,35.061634 80.434319,35.395885 77.590660,32.699379 
	C75.422211,30.643141 73.155220,28.568655 71.500664,26.118340 
	C68.160980,21.172428 63.245739,19.867592 57.838917,19.112673 
	C57.861320,23.272219 58.302811,23.332928 61.510414,25.005854 
	C64.431625,26.529411 66.987862,28.804527 69.557037,30.927418 
	C70.685539,31.859886 71.364914,33.314018 72.388306,34.399170 
	C78.398705,40.772285 82.282623,40.648556 89.441658,33.924225 
	C96.351936,38.751137 99.703964,50.702614 96.698433,61.025604 
	C93.414238,72.305687 85.748642,79.352966 74.640549,82.849945 
	C71.418373,83.864326 68.718903,83.390160 66.737602,80.480309 
	C62.167103,73.767830 57.293949,67.230423 53.199482,60.237930 
	C51.163597,56.761066 49.278061,54.331226 45.129147,53.190105 
	C37.519379,51.097103 37.829597,50.788055 38.564724,43.822701 
	C39.095295,38.795555 42.760437,37.938316 46.440571,37.178566 
	C48.633587,36.725826 50.996407,37.095585 53.896545,37.095585 
	C50.013466,40.666935 51.467564,48.025398 43.870441,48.275005 
	C43.918007,48.735874 43.965576,49.196743 44.013142,49.657608 
	C47.328564,50.279720 50.643982,50.901829 54.522701,51.629639 
	C54.824177,53.381077 55.308922,56.197266 56.005466,60.243896 
	C62.628086,52.138096 67.680473,44.771774 67.777130,35.006451 
	C67.812675,31.416065 65.931824,29.350517 62.636490,28.649761 
	C55.358135,27.102018 52.928959,21.804646 51.959534,15.289670 
	C51.435890,11.770567 52.318188,9.061527 56.066490,7.823154 
	C62.033627,5.851717 67.968094,3.781402 73.958191,1.376453 
	C74.750000,1.000000 75.500000,1.000000 76.625000,1.000000 
z"/>
<path fill="#080808" opacity="1.000000" stroke="none" 
	d="
M1.000000,81.250000 
	C8.058804,73.736900 15.020081,66.375275 22.216881,59.251591 
	C25.905006,55.600933 28.291954,51.560532 29.086035,46.354687 
	C30.499355,37.089214 32.783195,28.098177 39.101200,20.683815 
	C40.915966,18.554136 42.423561,16.162708 44.071991,13.891291 
	C44.981758,14.475092 45.891525,15.058894 46.801292,15.642696 
	C46.440277,17.148951 46.535919,19.038729 45.644791,20.099762 
	C39.451939,27.473408 34.500046,35.268135 33.537357,45.250671 
	C32.965782,51.177521 30.025160,56.202583 25.556437,60.358715 
	C18.770914,66.669586 12.182541,73.192436 5.871965,80.186111 
	C10.784410,81.581985 14.519171,79.734634 17.913645,76.858788 
	C18.027391,76.762421 17.409121,75.802025 16.658295,75.222198 
	C16.184525,75.200012 15.860398,74.866112 15.860399,74.866112 
	C22.090565,68.460426 28.292683,62.026768 34.602772,55.700806 
	C35.121880,55.180389 36.529018,55.019642 37.261467,55.323498 
	C42.043213,57.307217 46.935410,58.438236 49.357529,64.487297 
	C51.706722,70.354225 56.214733,75.356735 60.051258,81.157059 
	C58.275932,82.331841 56.008656,83.425446 54.259953,85.070358 
	C50.069313,89.012283 45.617554,92.835579 42.200645,97.402206 
	C37.575851,103.583145 32.687050,105.151489 25.906187,101.257523 
	C25.333927,100.928902 24.752636,100.121704 24.275745,100.194382 
	C15.021697,101.604630 12.427663,93.108849 7.173395,88.658646 
	C5.044858,86.855843 3.447110,84.426338 1.303916,82.141006 
	C1.000000,82.000000 1.000000,81.500000 1.000000,81.250000 
M30.549927,93.058289 
	C35.420090,88.848831 40.290257,84.639374 45.203568,80.392616 
	C44.679573,79.946648 44.434036,79.556664 44.192551,79.559158 
	C40.273823,79.599609 28.903238,89.129097 28.196518,93.004898 
	C28.191221,93.033943 29.333973,93.272331 30.549927,93.058289 
z"/>
<path fill="#E1E1E1" opacity="1.000000" stroke="none" 
	d="
M11.978571,244.355576 
	C32.413670,244.060562 52.845985,243.939255 73.278427,243.911713 
	C95.543983,243.881714 117.809662,243.938644 140.537537,244.260406 
	C140.999771,244.563110 141.000000,245.000000 141.000000,245.000000 
	C98.312439,245.000000 55.624878,245.000000 12.468657,245.000000 
	C12.000000,245.000000 11.975842,244.570602 11.978571,244.355576 
z"/>
<path fill="#DFDFDF" opacity="1.000000" stroke="none" 
	d="
M141.468781,245.000000 
	C141.000000,245.000000 140.999771,244.563110 140.999451,244.344666 
	C146.470383,244.064468 151.947433,244.125137 157.409363,243.866196 
	C159.045578,243.788620 160.639511,242.818771 162.626404,242.128845 
	C163.000000,242.982147 163.000000,243.964279 163.000000,245.000000 
	C155.979248,245.000000 148.958405,245.000000 141.468781,245.000000 
z"/>
<path fill="#040404" opacity="1.000000" stroke="none" 
	d="
M86.230171,155.236908 
	C99.424416,143.845200 112.875725,132.734894 125.740326,120.982368 
	C138.508774,109.317696 146.640030,94.947586 148.099258,77.322479 
	C148.134094,76.901474 148.427017,76.501823 148.627533,76.025887 
	C159.053314,87.676109 154.393768,132.279572 138.170837,176.430298 
	C103.042763,176.430298 67.785645,176.430298 32.615181,176.430298 
	C26.299002,151.055450 35.097515,126.640709 58.112915,113.164780 
	C59.117657,112.576485 60.187138,112.099434 61.198219,111.521179 
	C66.027802,108.759056 66.463058,104.245857 61.702854,101.129837 
	C58.647930,99.130089 54.867020,98.239403 50.797832,96.605087 
	C56.327507,92.432602 61.356178,88.110672 69.167099,88.888771 
	C85.929337,90.558571 98.188866,81.243416 101.151825,64.535629 
	C103.712303,50.097385 101.059135,36.727493 91.564293,25.112202 
	C90.863434,24.254814 90.366684,23.230566 89.118019,21.232586 
	C92.205009,21.548517 94.524368,21.324036 96.475967,22.066381 
	C104.493492,25.116070 113.217979,27.254496 120.159477,31.969992 
	C131.372543,39.587238 133.235321,51.993443 131.731430,64.600105 
	C129.205200,85.776649 116.001167,99.848961 99.254234,111.250740 
	C88.816650,118.356941 77.834930,124.734581 67.852509,132.419983 
	C56.481804,141.174194 49.176315,153.002731 46.253712,167.267670 
	C46.088211,168.075455 46.013134,168.908417 45.972561,169.733429 
	C45.925030,170.699982 45.961445,171.670639 45.961445,174.053757 
	C47.836056,172.604523 49.441639,172.011139 49.833588,170.963638 
	C56.326473,153.611023 69.270737,142.019501 83.977180,131.790985 
	C95.678848,123.652344 107.931862,115.995239 118.352753,106.400360 
	C133.421143,92.526344 140.251160,74.641655 137.635315,53.785072 
	C137.576004,53.312290 137.728897,52.812897 138.675293,51.978230 
	C139.517563,54.251007 140.613159,56.464382 141.162201,58.805920 
	C145.728683,78.281097 140.779236,95.591019 127.557449,110.048775 
	C118.728989,119.702522 108.176414,127.757721 98.926598,137.056686 
	C93.936317,142.073471 90.063026,148.201324 85.261665,154.304688 
	C84.673683,155.124329 84.509827,155.467209 84.345978,155.810089 
	C84.974045,155.619019 85.602104,155.427963 86.230171,155.236908 
M106.970993,35.889633 
	C106.229370,34.916821 105.487747,33.944012 105.273872,33.663456 
	C106.470833,44.852356 107.722298,56.550674 109.098938,69.419136 
	C112.498474,57.474556 111.969025,46.917313 106.970993,35.889633 
z"/>
<path fill="#080808" opacity="1.000000" stroke="none" 
	d="
M16.334003,75.378319 
	C16.113644,75.632156 15.743808,75.707687 15.373972,75.783218 
	C15.370138,75.539642 15.366305,75.296059 15.611435,74.959297 
	C15.860398,74.866112 16.184525,75.200012 16.334003,75.378319 
z"/>
<path fill="#F4F4F4" opacity="1.000000" stroke="none" 
	d="
M122.590576,193.112213 
	C90.901253,193.110046 59.666790,193.110046 28.158890,193.110046 
	C32.914387,188.395737 36.266941,182.747406 45.294815,182.886536 
	C66.879456,183.219223 88.384430,183.937515 109.725349,187.219498 
	C114.966003,188.025452 120.016624,190.067047 125.046844,192.676544 
	C124.379707,192.822495 123.712570,192.968430 122.590576,193.112213 
z"/>
<path fill="#DCDCDC" opacity="1.000000" stroke="none" 
	d="
M35.040352,228.596771 
	C30.948095,228.596817 27.346756,228.596817 23.745417,228.596817 
	C23.612549,228.007538 23.479683,227.418243 23.346817,226.828964 
	C26.565311,225.908524 29.779413,224.206100 33.002975,224.188004 
	C67.133240,223.996323 101.265442,223.993683 135.395752,224.183167 
	C139.314468,224.204926 143.224976,225.711258 147.139282,226.529251 
	C147.048843,227.218399 146.958389,227.907562 146.867950,228.596710 
	C109.755730,228.596710 72.643501,228.596710 35.040352,228.596771 
z"/>
<path fill="#E0E0E0" opacity="1.000000" stroke="none" 
	d="
M30.245300,93.235626 
	C29.333973,93.272331 28.191221,93.033943 28.196518,93.004898 
	C28.903238,89.129097 40.273823,79.599609 44.192551,79.559158 
	C44.434036,79.556664 44.679573,79.946648 45.203568,80.392616 
	C40.290257,84.639374 35.420090,88.848831 30.245300,93.235626 
z"/>
<path fill="#DEDEDE" opacity="1.000000" stroke="none" 
	d="
M107.058594,36.236694 
	C111.969025,46.917313 112.498474,57.474556 109.098938,69.419136 
	C107.722298,56.550674 106.470833,44.852356 105.273872,33.663456 
	C105.487747,33.944012 106.229370,34.916821 107.058594,36.236694 
z"/>
<path fill="#FAFAFA" opacity="1.000000" stroke="none" 
	d="
M86.005508,155.023102 
	C85.602104,155.427963 84.974045,155.619019 84.345978,155.810089 
	C84.509827,155.467209 84.673683,155.124329 85.075806,154.591156 
	C85.469666,154.537018 85.625259,154.673157 86.005508,155.023102 
z"/>
</svg>